<?xml version="1.0" standalone="no"?>
<!DOCTYPE svg PUBLIC "-//W3C//DTD SVG 20010904//EN"
 "http://www.w3.org/TR/2001/REC-SVG-20010904/DTD/svg10.dtd">
<svg version="1.0" xmlns="http://www.w3.org/2000/svg"
 width="1500.000000pt" height="1500.000000pt" viewBox="0 0 1500.000000 1500.000000"
 preserveAspectRatio="xMidYMid meet">
<metadata>
Created by potrace 1.16, written by Peter Selinger 2001-2019
</metadata>
<g transform="translate(0.000000,1500.000000) scale(0.100000,-0.100000)"
fill="#000000" stroke="none">
<path d="M7720 12345 c-474 -59 -903 -234 -1280 -524 -109 -84 -357 -331 -442
-442 -497 -644 -665 -1440 -468 -2219 83 -331 223 -617 474 -967 70 -98 82
-170 46 -285 -25 -80 -69 -148 -123 -188 -38 -28 -47 -30 -129 -30 -155 0
-322 45 -451 121 -97 57 -227 190 -309 314 -37 55 -116 191 -177 303 -169 310
-238 399 -364 471 -97 55 -180 76 -297 75 -116 0 -164 -11 -258 -57 -89 -43
-178 -129 -270 -260 -325 -461 -550 -1005 -641 -1547 -65 -386 -71 -851 -15
-1210 68 -441 184 -802 380 -1179 257 -494 592 -902 1024 -1247 451 -359 959
-605 1510 -732 753 -174 1538 -118 2249 160 1145 448 2023 1448 2316 2639 81
328 109 570 109 924 0 371 -35 649 -120 950 -55 196 -56 181 12 189 598 70
1151 490 1387 1055 96 230 131 402 132 646 0 206 -14 273 -84 413 -115 228
-297 375 -556 449 -50 14 -120 17 -427 21 l-368 4 -5 21 c-3 12 -14 67 -26
122 -50 240 -198 606 -325 805 -178 279 -410 530 -659 713 -373 275 -784 440
-1231 492 -156 18 -466 18 -614 0z m590 -350 c333 -45 631 -152 905 -324 460
-290 803 -747 953 -1271 47 -164 82 -369 82 -481 l0 -48 508 -3 c477 -4 510
-5 563 -24 176 -63 295 -198 330 -373 23 -117 -3 -344 -57 -509 -71 -212 -178
-386 -339 -548 -133 -133 -276 -232 -436 -299 -216 -91 -366 -115 -720 -115
-120 0 -219 -2 -219 -5 0 -3 13 -29 29 -58 68 -121 181 -431 235 -643 34 -133
71 -350 87 -499 16 -158 16 -539 0 -690 -65 -613 -275 -1171 -623 -1658 -555
-776 -1428 -1296 -2370 -1412 -189 -23 -503 -34 -678 -24 -690 40 -1373 306
-1926 751 -781 627 -1249 1539 -1293 2522 -26 581 82 1125 328 1649 92 196
278 500 366 596 94 103 225 109 324 16 46 -43 76 -91 246 -400 245 -444 453
-642 800 -762 168 -57 459 -81 576 -47 254 75 450 365 450 668 1 173 -42 285
-175 461 -224 296 -362 630 -422 1020 -23 151 -23 470 0 620 96 614 423 1143
926 1502 291 207 665 351 1015 391 127 15 419 13 535 -3z"/>
</g>
</svg>
