<?xml version="1.0" standalone="no"?>
<!DOCTYPE svg PUBLIC "-//W3C//DTD SVG 20010904//EN"
 "http://www.w3.org/TR/2001/REC-SVG-20010904/DTD/svg10.dtd">
<svg version="1.0" xmlns="http://www.w3.org/2000/svg"
 width="1500.000000pt" height="1500.000000pt" viewBox="0 0 1500.000000 1500.000000"
 preserveAspectRatio="xMidYMid meet">
<metadata>
Created by potrace 1.16, written by Peter Selinger 2001-2019
</metadata>
<g transform="translate(0.000000,1500.000000) scale(0.100000,-0.100000)"
fill="#000000" stroke="none">
<path d="M11926 8584 c-361 -87 -532 -521 -327 -829 44 -65 50 -98 25 -133
-17 -24 -40 -27 -97 -11 -50 13 -93 59 -147 152 -46 81 -66 100 -117 111 -72
16 -134 -41 -203 -189 -207 -441 12 -955 478 -1118 77 -27 102 -31 228 -35
120 -4 154 -1 225 17 191 48 359 164 474 326 120 169 171 406 131 616 -9 47
-16 88 -16 91 0 3 18 8 39 11 98 13 211 103 259 205 23 48 27 71 27 143 0 78
-2 89 -28 122 -41 54 -78 69 -184 75 -82 4 -93 7 -93 23 0 35 -43 134 -87 201
-122 185 -362 276 -587 222z m242 -69 c180 -43 320 -185 359 -366 l16 -77 118
-4 c114 -3 120 -4 146 -31 39 -39 39 -119 0 -199 -52 -106 -137 -159 -265
-166 -72 -4 -82 -7 -76 -21 165 -371 19 -791 -336 -971 -115 -58 -192 -75
-340 -74 -117 0 -145 3 -212 26 -125 42 -203 91 -303 192 -150 151 -215 306
-215 514 0 130 18 208 75 327 81 168 114 174 196 34 73 -125 135 -168 243
-172 66 -3 101 20 128 80 27 60 20 99 -32 179 -55 84 -80 166 -80 264 0 308
281 535 578 465z"/>
<path d="M6310 8188 l0 -323 -43 65 c-23 36 -54 70 -68 77 -50 24 -145 44
-234 50 -246 14 -460 -107 -564 -319 -65 -132 -76 -188 -76 -378 0 -145 3
-174 23 -240 66 -210 205 -350 393 -395 131 -31 324 -13 426 39 39 19 59 40
94 92 l44 68 3 -92 3 -92 189 0 190 0 0 885 0 885 -190 0 -190 0 0 -322z
m-197 -404 c67 -23 129 -82 163 -156 29 -62 29 -66 29 -238 0 -160 -2 -180
-24 -234 -28 -70 -79 -130 -135 -158 -52 -27 -160 -35 -223 -17 -68 18 -152
104 -182 183 -49 132 -49 312 2 444 56 149 220 227 370 176z"/>
<path d="M2440 8180 l0 -159 -97 -3 -98 -3 -3 -117 -3 -118 100 0 99 0 4 -422
c4 -378 6 -428 22 -471 25 -67 79 -119 151 -147 54 -21 77 -24 220 -24 88 -1
177 3 198 7 l37 8 0 118 0 119 -89 4 c-78 3 -93 6 -115 27 -14 14 -30 41 -36
60 -6 21 -10 183 -10 379 l0 342 135 0 135 0 0 120 0 120 -135 0 -135 0 0 160
0 160 -190 0 -190 0 0 -160z"/>
<path d="M3779 8044 c-87 -26 -138 -70 -188 -164 l-46 -85 -5 115 -5 115 -187
3 -188 2 0 -645 0 -645 189 0 190 0 3 363 c3 347 5 365 27 431 18 55 34 80 75
122 61 60 115 81 239 91 l77 6 0 147 c0 126 -2 149 -16 154 -27 10 -117 5
-165 -10z"/>
<path d="M7318 8050 c-346 -58 -557 -346 -535 -728 16 -271 128 -453 338 -552
88 -41 183 -60 304 -60 196 0 356 60 470 175 62 63 128 176 141 243 l7 32
-185 0 -185 0 -12 -41 c-16 -53 -84 -121 -137 -137 -61 -18 -162 -15 -210 7
-80 36 -137 130 -151 248 l-6 53 451 0 450 0 7 58 c14 120 -24 299 -87 412
-63 112 -160 202 -271 249 -103 44 -267 61 -389 41z m182 -260 c80 -22 152
-119 166 -222 l7 -48 -252 0 c-285 0 -266 -7 -234 86 18 55 51 110 79 136 56
49 156 70 234 48z"/>
<path d="M8605 8054 c-11 -2 -45 -9 -75 -15 -134 -27 -277 -124 -333 -226 -27
-51 -57 -150 -57 -190 l0 -23 179 0 179 0 7 38 c3 20 17 56 31 79 46 79 162
107 254 61 59 -31 79 -68 87 -165 l6 -79 -164 -11 c-255 -18 -412 -70 -512
-169 -176 -173 -142 -466 68 -589 123 -73 345 -73 498 0 48 22 54 29 75 85 13
33 27 60 32 60 4 0 11 -28 14 -62 13 -120 -9 -108 203 -108 171 0 184 1 179
18 -14 46 -26 305 -26 581 0 168 -5 335 -11 370 -27 168 -130 278 -305 325
-57 16 -288 30 -329 20z m245 -751 l33 -6 -6 -84 c-8 -114 -42 -176 -117 -215
-168 -89 -337 38 -258 192 18 35 35 51 78 73 73 36 198 55 270 40z"/>
<path d="M3982 7523 c4 -567 2 -550 76 -648 44 -58 109 -105 190 -136 79 -30
251 -38 342 -15 105 27 138 51 200 145 l55 84 3 -107 3 -106 189 0 190 0 -2
643 -3 642 -187 3 -187 2 -3 -412 c-3 -407 -4 -414 -27 -472 -44 -111 -127
-175 -226 -176 -114 0 -188 50 -221 150 -15 48 -18 108 -22 483 l-4 427 -184
0 -185 0 3 -507z"/>
<path d="M9402 7528 c3 -491 4 -504 25 -557 32 -78 70 -128 131 -172 84 -60
150 -81 273 -87 118 -5 184 6 271 45 53 23 63 33 113 112 l55 86 0 -107 0
-108 190 0 190 0 0 645 0 645 -187 -2 -188 -3 -5 -415 c-5 -395 -6 -418 -26
-467 -50 -121 -134 -179 -248 -171 -75 5 -129 30 -163 75 -51 67 -55 104 -60
561 l-5 422 -185 0 -184 0 3 -502z"/>
</g>
</svg>
